PathFileType	3	(X/Y/Z)	D:\Jess\PFP\Labelled\PA12\20250811\SRRun01.trc
DataRate	CameraRate	NumFrames	NumMarkers	Units	OrigDataRate	OrigDataStartFrame	OrigNumFrames
250.0	250.0	4	37	mm	250.0	35625	2501
Frame#	Time	C7			T10			CLAV			LSHO			RSHO			LASIS			RASIS			LPSIS			RPSIS			LILCR			RILCR			LGTR			LTHI			LLTHI			LLEP			LMEP			LPSH			LLSH			LDSH			LLMAL			LMMAL			LTOE			L5TH			LHEE			RGTR			RTHI			RLTHI			RLEP			RMEP			RPSH			RLSH			RDSH			RLMAL			RMMAL			RTOE			R5TH			RHEE			
		X1	Y1	Z1	X2	Y2	Z2	X3	Y3	Z3	X4	Y4	Z4	X5	Y5	Z5	X6	Y6	Z6	X7	Y7	Z7	X8	Y8	Z8	X9	Y9	Z9	X10	Y10	Z10	X11	Y11	Z11	X12	Y12	Z12	X13	Y13	Z13	X14	Y14	Z14	X15	Y15	Z15	X16	Y16	Z16	X17	Y17	Z17	X18	Y18	Z18	X19	Y19	Z19	X20	Y20	Z20	X21	Y21	Z21	X22	Y22	Z22	X23	Y23	Z23	X24	Y24	Z24	X25	Y25	Z25	X26	Y26	Z26	X27	Y27	Z27	X28	Y28	Z28	X29	Y29	Z29	X30	Y30	Z30	X31	Y31	Z31	X32	Y32	Z32	X33	Y33	Z33	X34	Y34	Z34	X35	Y35	Z35	X36	Y36	Z36	X37	Y37	Z37	

626	142.496	859.1608906545262	1592.459607498173	-398.6275740620829	770.9249792237687	1313.967190615425	-418.2806704425076	1018.293111099758	1480.452710672946	-351.1018737932383	955.5249347689922	1592.108572571962	-525.8032864281417	892.7418854398298	1581.015950602433	-238.0353888062106	964.6219008326594	1040.226912130887	-511.6007867631953	980.231509774126	1055.110655138947	-282.854433845287	765.5114637677711	1117.478482826004	-402.719371284549	766.1996102706898	1118.3911605297	-360.7273696330653	917.6338790091911	1140.794961260125	-566.5198751317521	871.5907257372194	1160.427246982474	-207.3402022614608	855.5493881909517	931.5681523117217	-579.1479322545568	904.8938239934703	744.22644119074	-486.9773245669618	745.8588411032429	701.9735197078247	-538.7734405124274	670.4714749052619	586.9836038088777	-517.4728513238579	nan	nan	nan	682.1955509513904	485.531495111359	-465.3694868286451	544.5757021548421	427.5738893294871	-514.6544518393919	544.0609557204378	290.5253459161361	-455.7908514173357	438.0128179471521	228.8361497461884	-479.538217085547	nan	nan	nan	504.5294978557778	73.50732899975077	-464.3780270396043	453.193130677882	79.58286058901722	-496.3051705565611	376.8152513720583	267.0447140958534	-425.146203540213	902.597798020036	975.7383640482681	-180.1570908093663	1098.274459227901	838.9498371281295	-296.3925865243973	1015.610894756789	712.6510323049281	-226.1719838830687	1051.737268271839	587.550863646699	-250.4054938540264	nan	nan	nan	1123.171973207745	502.2563831188558	-313.9953151781404	1059.076048677373	379.4125671888983	-253.5536733280911	1136.416773927351	267.8089002228127	-324.6438950468372	1114.027679618586	152.1980617582517	-299.610293357345	nan	nan	nan	1266.682352625903	146.8408438441488	-298.6529835200908	1239.674573940223	99.09231548398992	-267.7596630480906	1044.359384392601	103.110824794676	-366.5933981398954	
627	142.5	859.2796481744857	1592.974898604386	-398.2957354246203	771.1334151332004	1314.691164931754	-418.2125557169877	1018.22456581869	1481.283301049848	-350.3915260255712	956.040213246119	1592.722327356199	-524.7532273834225	892.4153189163693	1581.242504625163	-237.9006925794702	965.6325286982894	1041.192558235268	-511.014259043279	980.8092399116354	1055.666044450166	-282.4443712966417	766.4991842677787	1118.534442393144	-403.1065748533566	766.9071700658609	1119.470799617898	-361.180898884407	918.6384670340434	1142.216305423288	-566.0508698505234	872.1219228636083	1161.381857169111	-207.2672250787969	856.3898239348958	932.6680656431862	-579.119706854229	905.890175897016	744.6197752500859	-487.6588580192574	746.7172619296624	702.5386989976683	-538.8618509165315	671.2970540833446	587.5944264356654	-517.5453393958328	nan	nan	nan	681.9064776535653	485.7910857174363	-465.5945890591574	542.9700890799504	430.0379494277847	-514.4330397438957	540.5900544387422	292.7868148250473	-456.177056647234	433.4412253051628	233.3163034445952	-479.5382400683707	nan	nan	nan	496.0700350282625	75.8090861698016	-465.009401190746	444.3865373923467	83.40962880562167	-495.9788935802653	374.0529378275074	273.3261334778444	-424.5945315796224	902.1695459375717	976.390342041827	-180.3975805067668	1096.559713850079	836.2844174532215	-296.938218296586	1013.991655887077	711.6099723840366	-225.1996844903826	1050.384395839324	586.0487383442929	-250.2998899435024	nan	nan	nan	1122.896805073546	501.9372259685668	-314.1721856354372	1060.744426444908	378.0932347378607	-254.1887934834153	1140.254071904672	268.0129162475523	-325.4381364838845	1120.241305120773	151.7207032439163	-300.8999320801782	nan	nan	nan	1273.198343102375	149.8839467991847	-300.5602897164289	1247.471601413891	101.0342189274524	-270.0486962936412	1051.672402272212	101.2209024036454	-367.9815380837094	
628	142.504	859.3842277019024	1593.361133116545	-397.9423927147491	771.2759606270154	1315.294857511347	-418.0292299612541	1018.141005375432	1481.888829620538	-349.7031435433728	956.5110057104666	1593.165851210204	-523.7366643057559	892.1179205104694	1581.30270138614	-237.7239795646514	966.6264953159516	1042.078791124177	-510.412718328688	981.3480115171212	1056.042847600945	-282.0185907382094	767.423315826883	1119.402004734518	-403.4780502068963	767.5529044951958	1120.342849892041	-361.6157816155792	919.5150182253127	1143.485774026298	-565.5928502165926	872.5833648698086	1162.069307733412	-207.130003583136	857.3525372660788	933.6200125189949	-579.0437367467854	907.2093287622798	744.9042618122101	-488.229170190004	747.9596382093432	702.7654343962811	-538.9534536457584	672.5883779904669	587.8430392067615	-517.6540087479328	nan	nan	nan	681.958368474129	485.7194474217591	-465.860121839525	541.6683854711205	432.3361001732234	-514.2148909292	537.2600547006897	294.9934084689984	-456.5060261898695	428.9569504978306	237.8713408903128	-479.4602700008024	nan	nan	nan	487.6639293815677	78.36130615438373	-465.6582931440138	435.6830814842262	87.48893730473615	-495.680319318178	371.4062969417411	279.588036624553	-423.9361194686518	901.6593906258634	976.7110773677147	-180.6459637445574	1094.81096675353	833.3455897621379	-297.4917073542737	1012.487145245333	710.3719515406299	-224.191130380606	1049.109346013988	584.4990004572293	-250.2085964833787	nan	nan	nan	1122.508932153758	501.5154760781401	-314.3394427971724	1062.026536170325	376.8280016717031	-254.8285528021547	1143.449634944553	268.1173847043893	-326.2013814023629	1125.533619546141	151.2493178046619	-302.1429378395202	nan	nan	nan	1278.716220077285	152.5362604102285	-302.3815083446559	1254.16872905342	102.6820539729657	-272.2790868278825	1057.993141777031	99.49640220180217	-369.3437458996535	
629	142.508	859.4741673416196	1593.613953553278	-397.5670307271463	771.3547711473674	1315.771047605447	-417.7343018872962	1018.040776533232	1482.270952549213	-349.0333434376142	956.9365560836183	1593.438764237975	-522.7559204229508	891.8441270888929	1581.196325039403	-237.5021204786187	967.6002694803799	1042.882669381437	-509.8003187666679	981.8449362911014	1056.247745695195	-281.5767667122782	768.2794872924765	1120.070031980708	-403.8289068522926	768.1369680599096	1120.99496052747	-362.0265001912583	920.2669530254356	1144.600325182127	-565.1491192655252	872.963451598742	1162.486425127673	-206.9288843486832	858.4362374523739	934.4161947905981	-578.9189878693583	908.8409497874931	745.0728860495095	-488.6774742417073	749.5777452127272	702.6476970578937	-539.0482855699837	674.3297597262067	587.7360763985765	-517.8015666151559	nan	nan	nan	682.3389156280962	485.3286548363113	-466.1720281127097	540.6688864626293	434.4819045276059	-514.0071086650149	534.0807733660438	297.161392966842	-456.7824396176178	424.5808145915421	242.5080155542683	-479.3143383748932	nan	nan	nan	479.3430864260091	81.17282712006097	-466.3254289655725	427.1221903772648	91.82398379778823	-495.4262628940688	368.8776373530804	285.8338627940281	-423.188763449466	901.0738378515885	976.6979336324493	-180.8973251655454	1093.064111015624	830.1843447128115	-298.0279261220211	1011.105567741897	708.9502377245923	-223.1811659078122	1047.905137402725	582.9029921261098	-250.1384338884754	nan	nan	nan	1122.002578796765	500.981474063828	-314.4982756963297	1062.910372929239	375.5930494078537	-255.4703308493422	1145.996079207043	268.0847007958138	-326.9313956842435	1129.888085574117	150.7362074206791	-303.3333967738385	nan	nan	nan	1283.236769223558	154.7326158877581	-304.1014066093301	1259.752410638461	103.9678899694096	-274.430747411854	1063.290887533075	97.89583043338193	-370.6719183840842	
